<svg xmlns="http://www.w3.org/2000/svg" width="1024" height="360" fill="none" viewBox="0 0 1024 360"><path fill="url(#a)" d="M0 0h1024v360H0z"/><mask id="b" width="426" height="261" x="56" y="50" maskUnits="userSpaceOnUse" style="mask-type:luminance"><path fill="#fff" d="M481.47 50H56v260.815h425.47z"/></mask><g mask="url(#b)"><path fill="#ebebeb" fill-rule="evenodd" d="M179.785 257.914c4.611-1.217 9.339 1.539 10.556 6.147 1.215 4.611-1.537 9.339-6.148 10.556-7.437 1.962-13.167 7.124-17.495 12.418-7.116 8.703-10.531 18.112-10.531 18.112a8.644 8.644 0 0 1-11.054 5.203c-4.487-1.614-6.816-6.567-5.202-11.052 0 0 4.315-12.069 13.412-23.196 6.478-7.925 15.332-15.252 26.462-18.188m-12.384-18.196c4.583 1.317 7.231 6.107 5.913 10.688-1.319 4.581-6.108 7.23-10.689 5.911-7.394-2.126-14.956-.631-21.389 1.697-10.57 3.824-18.326 10.152-18.326 10.152-3.687 3.025-9.134 2.487-12.157-1.199-3.024-3.685-2.488-9.131 1.199-12.156 0 0 9.89-8.151 23.407-13.042 9.625-3.483 20.98-5.236 32.042-2.051M353.201 274.617c-4.61-1.217-7.363-5.945-6.148-10.556 1.217-4.608 5.945-7.364 10.556-6.147 11.13 2.937 19.984 10.264 26.462 18.188 9.097 11.127 13.412 23.196 13.412 23.196 1.614 4.485-.715 9.438-5.202 11.052s-9.437-.716-11.054-5.203c0 0-3.415-9.409-10.531-18.112-4.328-5.294-10.058-10.456-17.495-12.418m21.568-18.3c-4.581 1.32-9.37-1.329-10.689-5.911-1.318-4.581 1.33-9.371 5.913-10.688 11.062-3.185 22.417-1.431 32.042 2.051 13.517 4.892 23.407 13.043 23.407 13.043 3.687 3.024 4.223 8.47 1.199 12.156s-8.47 4.223-12.157 1.198c0 0-7.756-6.327-18.325-10.152-6.434-2.328-13.996-3.823-21.39-1.697M114.348 143.116c-.516-4.737 2.911-9.006 7.651-9.521 4.738-.518 9.006 2.911 9.522 7.648 1.505 13.793 12.781 27.784 25.033 31.053 4.605 1.226 7.347 5.964 6.118 10.569-1.227 4.61-5.965 7.35-10.571 6.12-18.249-4.868-35.513-25.327-37.753-45.869" clip-rule="evenodd"/><path fill="#ebebeb" fill-rule="evenodd" d="M74.892 68.223 79.98 87.2a14.067 14.067 0 0 0 17.232 9.95l24.377-6.53a14.09 14.09 0 0 0 8.548-6.555 14.08 14.08 0 0 0 1.403-10.68c-1.732-6.473-3.724-13.895-5.065-18.982a3.497 3.497 0 0 1 4.577-4.195c16.313 6.081 29.544 19.69 34.39 37.77 7.954 29.671-9.683 60.216-39.359 68.166-29.671 7.954-60.218-9.682-68.168-39.357-4.845-18.076-.189-36.482 10.883-49.914a3.51 3.51 0 0 1 3.456-1.174 3.51 3.51 0 0 1 2.638 2.524M423.041 143.116c.516-4.737-2.911-9.006-7.651-9.521-4.738-.518-9.006 2.911-9.522 7.648-1.505 13.793-12.781 27.784-25.033 31.053-4.605 1.226-7.348 5.964-6.119 10.569 1.227 4.609 5.965 7.35 10.572 6.12 18.248-4.868 35.512-25.327 37.753-45.869" clip-rule="evenodd"/><path fill="#ebebeb" fill-rule="evenodd" d="m462.501 68.222-5.088 18.977a14.067 14.067 0 0 1-17.232 9.95l-24.377-6.53a14.09 14.09 0 0 1-8.548-6.555 14.08 14.08 0 0 1-1.403-10.68c1.732-6.472 3.724-13.895 5.065-18.982a3.497 3.497 0 0 0-4.577-4.194c-16.313 6.08-29.544 19.689-34.39 37.77-7.954 29.67 9.683 60.216 39.359 68.165 29.671 7.954 60.218-9.682 68.168-39.357 4.845-18.076.189-36.481-10.883-49.914a3.51 3.51 0 0 0-3.456-1.174 3.51 3.51 0 0 0-2.638 2.524" clip-rule="evenodd"/><path fill="#ebebeb" d="M268.694 293.725c76.137 0 137.857-42.321 137.857-94.527s-61.72-94.527-137.857-94.527c-76.136 0-137.857 42.321-137.857 94.527s61.721 94.527 137.857 94.527"/><path fill="#000" fill-rule="evenodd" d="M208.263 107.563c27.521 0 49.857 22.243 49.857 49.621 0 27.375-22.336 49.618-49.857 49.618-27.526 0-49.858-22.243-49.858-49.618 0-27.378 22.332-49.621 49.858-49.621m0 9.847c-22.077 0-40.013 17.815-40.013 39.774 0 21.956 17.936 39.771 40.013 39.771 22.072 0 40.009-17.815 40.009-39.771 0-21.959-17.937-39.774-40.009-39.774" clip-rule="evenodd"/><path fill="#000" fill-rule="evenodd" d="M254.429 157.648a4.927 4.927 0 0 1-6.005-3.529 4.93 4.93 0 0 1 3.53-6.002s11.161-2.84 16.739-2.84 16.739 2.84 16.739 2.84a4.93 4.93 0 0 1 3.531 6.002 4.93 4.93 0 0 1-6.006 3.529s-9.506-2.524-14.264-2.524-14.264 2.524-14.264 2.524" clip-rule="evenodd"/><path fill="#000" fill-rule="evenodd" d="M329.132 107.563c27.521 0 49.857 22.243 49.857 49.621 0 27.375-22.336 49.618-49.857 49.618-27.526 0-49.858-22.243-49.858-49.618 0-27.378 22.332-49.621 49.858-49.621m0 9.847c-22.077 0-40.013 17.815-40.013 39.774 0 21.956 17.936 39.771 40.013 39.771 22.073 0 40.009-17.815 40.009-39.771 0-21.959-17.936-39.774-40.009-39.774" clip-rule="evenodd"/></g><path fill="#ebebeb" d="m511.907 191.625.188-27.813h-7.063V157.5q4.313-2.937 8.438-7.125a69.3 69.3 0 0 0 7.5-9h6.75v13.75h17.375L544.47 164h-16.938l-.125 24q0 5.437 2.063 7.75 2.124 2.313 7.187 2.312 1.813 0 3.563-.562 1.812-.625 2.937-1.25a44 44 0 0 0 1.5-.812l1.563 5.812q-2.813 3.937-7.625 6.562-4.75 2.626-10.938 2.626-5.625 0-9.062-1.75-3.438-1.75-5.125-5.876-1.625-4.125-1.563-11.187m61.563 39.125q-4.188 2.062-10 2.062-3.126 0-5.875-1.25-2.75-1.186-4.438-3.25-1.687-2-1.687-4.312 0-2.812.875-5.188.937-2.311 3.5-4.75a15.9 15.9 0 0 0 5.437 3.188 18.2 18.2 0 0 0 6.313 1.125q3.062 0 5.5-1.375 2.5-1.375 4.25-5.188l1-2.25-18.625-46.25-7.875-3.062 1.125-7.375h30.437l-.937 7.25-6.75 2.937L586.532 192l11.563-28.5-7.75-3.375 1.312-7.25h23.813l-.75 7.25-6.188 3.187-20.437 47.813q-3.5 8.187-7 12.875-3.438 4.688-7.625 6.75m72.062-25v15.75l12.5 3.188-1.062 7.5h-36.688l.75-7.376 9.625-3.374V166.25l-9.5-3.938 1.188-7.687 22.062-2 1.875 1.75-1.125 6.625.625.188q2.812-4 7.125-6.813 4.375-2.875 10-2.875 5.563 0 10.063 2.938 4.562 2.874 7.25 9.062t2.687 15.625q0 9.625-3.875 16.687-3.812 7-10.562 10.688-6.688 3.688-15.063 3.688-5.562 0-7.812-.813zm11.375-40.875q-5.375 0-11.375 4.875v28.812q2.313 1.064 4.5 1.563 2.188.438 5.125.437 5.563 0 8.688-4.312 3.187-4.375 3.187-12.125 0-9.25-2.562-14.25-2.5-5-7.563-5M720.47 209q-5.25 2.188-11.563 2.188-5.312 0-9.937-1.563-4.562-1.562-7.313-4.25-2.687-2.688-2.687-6 0-3.874 2.687-6.313 2.688-2.436 7.438-2.812 1.812 6.313 4.875 9.625 3.062 3.25 6.75 3.25 3.687 0 5.625-1.187 1.937-1.188 1.937-3.938 0-1.625-1.312-3.062-1.25-1.438-3.25-2.626-1.938-1.186-5.5-3-5.5-2.874-8.938-5.187-3.437-2.375-6-5.937-2.5-3.625-2.5-8.5 0-4 2.25-8.25 2.313-4.314 7.188-7.25 4.937-2.938 12.312-2.938 8.063 0 13 2.75 5 2.75 5 7.875 0 3.937-2.937 6.625-2.938 2.625-7.375 3l-1.25-4q-1.25-5-3.813-7-2.562-2-5.625-2-2.813 0-4.5 1.688-1.625 1.686-1.625 4.187 0 1.938 1.438 3.563t3.625 3q2.187 1.311 6 3.25 5.562 2.874 9.062 5.25 3.501 2.312 6 5.874 2.5 3.501 2.5 8.313 0 5.25-3.125 9.25T720.47 209m53.125.5a29 29 0 0 1-8.875 1.375q-9 0-15.188-3.625-6.125-3.625-9.187-9.938-3.063-6.375-3.063-14.562 0-9.687 4.375-17 4.438-7.312 11.375-11.188 7-3.936 14.313-3.937 5.125 0 8.875 1.687 3.75 1.626 5.687 4.438t1.938 6.25q0 3.938-2.813 6.125-2.75 2.187-7.5 2.625-2.187-6.25-4.5-9.188-2.312-3-5.562-3-4.875 0-7.5 4.438t-2.625 13.062q0 5.376 1.875 10.688 1.937 5.25 5.687 8.75 3.813 3.438 9.188 3.438 4.5 0 7.562-1 3.063-1.063 6.438-3.126l2 5.063q-1.625 2.688-4.938 5-3.25 2.313-7.562 3.625m58.687-2.625q-6.437 3.813-14.562 3.813-9.438 0-15.688-3.938-6.188-4-9.062-10.625-2.875-6.687-2.875-15 0-9.125 4.25-15.937 4.25-6.876 10.937-10.5 6.688-3.626 13.875-3.626 8.5 0 14.5 3.376 6.063 3.375 9.188 9.874 3.125 6.438 3.125 15.563T842.345 196t-10.063 10.875m-5.437-38.5q-2.938-7.5-10.188-7.5-5.5 0-8.062 4.375-2.5 4.313-2.5 11.75 0 11.25 3.25 17.938 3.312 6.624 10.437 6.624 5.062 0 7.563-3.937 2.5-4 2.5-11 0-10.75-3-18.25m65 32-.75 8.563h-39.25l1-7.313 9.375-3.375v-32.125l-9.5-3.937 1.25-7.626 20.375-2.062 1.937 2-1.187 11.562 1.187.313q2.313-7.437 6.313-11.063 4.062-3.687 8.75-3.687 4.062 0 6.437 2.437 2.438 2.438 2.438 6.063 0 3.312-1.5 5.937-1.5 2.563-4.188 4.813-4.313-2.75-7.875-2.75-3.437 0-6 3-2.5 3-3.562 7.75v18.5zm40.937 7.375q-3.875 2.5-9.75 2.5-6.062 0-10.687-3.125-4.626-3.187-7.125-8.875-2.5-5.75-2.5-13.188 0-8.562 3.687-16.062 3.75-7.562 10.313-12.062 6.625-4.563 14.875-4.563 2.25 0 4.875.687 2.687.625 4.062 1.563h.375l-.687-6.25v-6.813l-10.188-4.874 1.25-7.438 20.875-1.625 2.5 2.5v60.437q0 3.189.75 4.813.75 1.625 2.25 2.437 1.563.75 4.75 1.688l2.25.625-1.125 7.875q-3.563 1.313-6.062 1.875-2.438.563-5.875.563-4.687 0-7.438-2.313-2.687-2.313-3.5-6.375l-.187-.625-.688-.125q-3.062 4.25-7 6.75m1.875-43.875q-2.937-1.812-5.5-1.813-5.125 0-7.75 5.188T918.782 180q0 5.375 1.375 9.375t3.875 6.25q2.563 2.187 6 2.187 2.563 0 5.25-1.124 2.688-1.188 4.75-2.938v-24.625q-2.375-3.438-5.375-5.25"/><path fill="#c6ebff" d="M525.03 261.8h-1.032q-.072-1.176-.36-1.944-.264-.792-.768-1.248a2.6 2.6 0 0 0-1.224-.648q-.72-.192-1.68-.192a19 19 0 0 0-1.512.048q-.552.024-.864.12-.288.072-.384.216a.64.64 0 0 0-.096.36v12.576q0 .768.096 1.32.12.552.456.912.336.336.984.528.648.168 1.704.192v.96h-10.056v-.96q1.08-.024 1.728-.192.648-.192.984-.528.36-.36.456-.912.12-.552.12-1.32v-12.576a.64.64 0 0 0-.096-.36q-.072-.144-.336-.216-.264-.096-.768-.12a13 13 0 0 0-1.272-.048q-.864 0-1.656.096a2.9 2.9 0 0 0-1.392.48q-.6.384-.984 1.2-.36.792-.384 2.256h-.936l.24-5.28h18.792zm6.5 16.968q-.264.528-.672.984a3.7 3.7 0 0 1-.888.768q-.48.336-1.008.528a3.1 3.1 0 0 1-1.056.192q-.792 0-1.272-.384t-.48-1.032q0-.6.408-.936.432-.336 1.368-.408 2.136-.168 2.76-1.344l.648-1.248-4.248-10.512a13 13 0 0 0-.504-1.104q-.192-.408-.432-.624a1.13 1.13 0 0 0-.552-.312 4.6 4.6 0 0 0-.768-.096v-.96h7.272v.96q-.936 0-1.32.192-.36.168-.36.648 0 .192.048.456.072.24.168.504l2.448 7.008h.096l2.064-4.68q.312-.744.528-1.224a7 7 0 0 0 .312-.84q.12-.36.168-.576t.048-.432q0-.624-.36-.84-.336-.216-1.392-.216v-.96h5.784v.96q-.48 0-.816.144-.336.12-.696.528-.336.408-.768 1.224a72 72 0 0 0-1.032 2.112zm13.859-14.928h.096q1.584-1.8 4.128-1.8 1.392 0 2.544.504 1.176.48 2.016 1.368a5.75 5.75 0 0 1 1.32 2.088q.48 1.2.48 2.64t-.48 2.64a6.2 6.2 0 0 1-1.296 2.088 6 6 0 0 1-2.016 1.392q-1.152.48-2.52.48-2.328 0-3.552-1.584h-.096v3.336q0 .96.096 1.536t.408.888.864.432q.576.12 1.512.144V281h-8.28v-1.008q.648-.024 1.056-.144t.624-.432q.24-.312.312-.864.096-.528.096-1.392v-8.928q0-1.104-.048-2.088-.048-1.008-.12-1.416-.12-.552-.552-.768-.408-.216-1.416-.216v-.936l4.824-.672zm4.08-.432q-.768 0-1.464.336t-1.104.888-.624 1.392a7 7 0 0 0-.216 1.776v1.632q0 1.704.84 2.904.912 1.32 2.568 1.32 1.464 0 2.16-1.2.72-1.224.72-3.768 0-5.28-2.88-5.28m20.383 9.36q-2.184 2.472-5.448 2.472-1.488 0-2.712-.456-1.2-.48-2.064-1.32a6.1 6.1 0 0 1-1.344-2.04q-.48-1.176-.48-2.616 0-1.488.504-2.712a6.2 6.2 0 0 1 1.416-2.136 6.7 6.7 0 0 1 2.184-1.416q1.272-.504 2.784-.504 2.544 0 3.96 1.368t1.416 3.84q0 .384-.12.48-.12.072-.672.072h-7.728q-.096.216-.096.792 0 2.352 1.008 3.72 1.032 1.368 2.784 1.368 1.008 0 1.992-.456a7.6 7.6 0 0 0 1.944-1.296zm-4.656-6.312q.96 0 1.224-.096.288-.12.288-.528 0-1.056-.6-1.728a1.94 1.94 0 0 0-1.512-.672q-1.032 0-1.848.864-.792.84-1.032 2.16zm7.775 8.544h-.744v-4.368h1.008q.408 1.728 1.176 2.52t1.992.792q.888 0 1.368-.36.504-.384.504-1.032 0-.672-.6-1.296-.6-.648-1.944-1.368-1.824-.984-2.616-1.944a3.43 3.43 0 0 1-.792-2.208q0-.792.288-1.464a4 4 0 0 1 .816-1.2 3.6 3.6 0 0 1 1.248-.768q.72-.288 1.56-.288.744 0 1.464.216.744.216 1.296.6l.432-.576h.624v3.624h-.936q-.552-1.368-1.152-1.968-.576-.6-1.416-.6-.672 0-1.08.36-.384.36-.384.96 0 .672.576 1.272.6.6 1.968 1.32.96.528 1.656 1.032t1.128 1.032q.432.504.624 1.08.216.552.216 1.2 0 .84-.312 1.512a3.3 3.3 0 0 1-.888 1.152q-.576.48-1.392.744a5.6 5.6 0 0 1-1.776.264 6.7 6.7 0 0 1-1.92-.264q-.888-.288-1.464-.816zm22.099-2.232q-2.184 2.472-5.448 2.472-1.488 0-2.712-.456-1.2-.48-2.064-1.32a6.1 6.1 0 0 1-1.344-2.04q-.48-1.176-.48-2.616 0-1.488.504-2.712a6.2 6.2 0 0 1 1.416-2.136 6.7 6.7 0 0 1 2.184-1.416q1.272-.504 2.784-.504 2.544 0 3.96 1.368t1.416 3.84q0 .384-.12.48-.12.072-.672.072h-7.728q-.096.216-.096.792 0 2.352 1.008 3.72 1.032 1.368 2.784 1.368 1.008 0 1.992-.456a7.6 7.6 0 0 0 1.944-1.296zm-4.656-6.312q.96 0 1.224-.096.288-.12.288-.528 0-1.056-.6-1.728a1.94 1.94 0 0 0-1.512-.672q-1.032 0-1.848.864-.792.84-1.032 2.16zm6.335-2.856v-1.08q1.44-.408 2.4-1.224.984-.84 1.464-1.92h1.224v2.904h2.76v1.32h-2.76v7.368q0 1.488.312 2.112.336.624 1.104.624.936 0 1.416-.864l.504.696q-.672 1.704-3.168 1.704-1.656 0-2.592-.768-.912-.768-.912-2.16V263.6zm9.164 0v-1.08q1.44-.408 2.4-1.224.984-.84 1.464-1.92h1.224v2.904h2.76v1.32h-2.76v7.368q0 1.488.312 2.112.336.624 1.104.624.936 0 1.416-.864l.504.696q-.672 1.704-3.168 1.704-1.656 0-2.592-.768-.912-.768-.912-2.16V263.6zm14.733 7.464q0 .96.072 1.536t.288.888.624.432q.408.096 1.104.12v.96h-7.56v-.96q.672-.024 1.08-.144.432-.144.648-.432.24-.312.312-.84.096-.552.096-1.392v-2.952q0-1.392-.048-2.28-.048-.912-.12-1.248-.12-.6-.552-.792-.408-.192-1.512-.192v-.816l5.568-.912zm-3.528-14.112q0-.792.528-1.32a1.8 1.8 0 0 1 1.32-.552q.792 0 1.32.552.552.528.552 1.32 0 .768-.552 1.32-.528.528-1.32.528-.768 0-1.32-.528a1.84 1.84 0 0 1-.528-1.32m12.199 14.136q0 .984.048 1.56.072.552.264.864.216.288.624.384.432.096 1.152.144v.96h-7.56v-.96a7 7 0 0 0 1.104-.144q.432-.096.648-.384.24-.288.312-.816t.072-1.44v-3q0-1.416-.048-2.28-.048-.888-.12-1.2a1.7 1.7 0 0 0-.192-.504.7.7 0 0 0-.36-.312q-.24-.12-.6-.144a7 7 0 0 0-.912-.048v-.816l4.632-.912.312 2.112h.096a5.6 5.6 0 0 1 1.872-1.56 5.14 5.14 0 0 1 2.376-.552q1.536 0 2.472.432.96.408 1.704 1.392.408.552.72 1.44.312.864.312 2.4v3.384q0 .984.048 1.56.072.552.264.864.216.288.624.384a7 7 0 0 0 1.104.144v.96h-7.512v-.96q.72-.024 1.128-.12.432-.12.648-.408t.288-.816q.072-.552.072-1.44v-3.264q0-1.224-.144-2.064t-.48-1.344a1.7 1.7 0 0 0-.84-.744q-.528-.24-1.32-.24-.768 0-1.32.432t-.96 1.2q-.216.432-.384 1.128-.144.672-.144 1.416zm16.742 1.32q.648.048 1.128.096.504.048.936.12.456.048.888.12.456.048.96.12 1.872.264 2.928 1.416 1.08 1.128 1.08 2.808 0 2.04-1.68 3.096t-4.944 1.056q-3 0-4.632-.888-1.608-.864-1.608-2.472 0-1.248.648-1.896.648-.624 1.632-.624.624 0 1.2.24.6.264 1.008.744-.624.12-1.032.552a1.6 1.6 0 0 0-.384 1.056q0 .96.84 1.464.864.528 2.52.528 3.6 0 3.6-2.28 0-.816-.552-1.416-.528-.576-1.536-.696l-4.2-.576q-2.664-.36-2.664-2.376 0-.984.624-1.608.648-.624 1.824-.864v-.096a3.6 3.6 0 0 1-1.008-.6 4.6 4.6 0 0 1-1.296-1.968 4.5 4.5 0 0 1-.168-1.224q0-.888.36-1.656.384-.792 1.032-1.344a5.1 5.1 0 0 1 1.56-.864 5.7 5.7 0 0 1 1.968-.336q1.032 0 2.016.312t1.68.864q.552-.336.96-.552.408-.24.744-.36.36-.144.648-.192.288-.072.576-.072.912 0 1.464.408.576.408.576 1.08 0 .504-.312.84-.312.312-.816.312-.36 0-.576-.144a9 9 0 0 1-.432-.36 2.1 2.1 0 0 0-.408-.36q-.216-.168-.576-.168-.504 0-.96.648.24.408.336.888.096.456.096 1.08 0 .912-.288 1.68a3.7 3.7 0 0 1-.912 1.368q-.6.576-1.56.984t-2.328.552q-1.152.12-1.608.312-.432.192-.432.576 0 .576 1.08.672m1.152-2.928q.768 0 1.2-.816t.432-2.28q0-1.488-.432-2.28-.432-.816-1.224-.816-.816 0-1.296.816t-.48 2.232q0 1.44.48 2.304.504.84 1.32.84m14.55-7.2h2.592v-1.344q0-1.296.432-2.376.456-1.08 1.248-1.848a5.2 5.2 0 0 1 1.896-1.2q1.128-.432 2.496-.432.816 0 1.488.168.696.144 1.2.408t.768.648q.288.384.288.816 0 .552-.408.912t-1.032.36q-.432 0-.768-.288-.312-.288-.96-1.056a1.8 1.8 0 0 0-.6-.48 1.5 1.5 0 0 0-.648-.144q-.96 0-1.512 1.176-.552 1.152-.552 3.192v1.488h4.056v1.32h-4.056v7.416q0 .912.096 1.488.12.576.408.912.312.336.816.48.504.12 1.296.144v.96h-8.112v-.96q.72-.024 1.152-.12.432-.12.648-.408.216-.312.288-.84.072-.552.072-1.464V263.6h-2.592zm17.753-.24q1.44 0 2.712.504 1.296.48 2.256 1.344a6.1 6.1 0 0 1 1.536 2.064q.576 1.176.576 2.592 0 1.464-.576 2.688a6.3 6.3 0 0 1-1.536 2.112 7 7 0 0 1-2.256 1.392 7.3 7.3 0 0 1-2.712.504 7.6 7.6 0 0 1-2.688-.48 7.1 7.1 0 0 1-2.232-1.392 6.5 6.5 0 0 1-1.512-2.112 6.6 6.6 0 0 1-.552-2.712q0-1.416.552-2.616t1.512-2.064a7 7 0 0 1 2.232-1.344 7.6 7.6 0 0 1 2.688-.48m0 1.392a2.4 2.4 0 0 0-1.32.384q-.6.36-1.032 1.032-.408.672-.648 1.632a9.3 9.3 0 0 0-.216 2.088q0 1.2.216 2.16.24.96.648 1.632.432.672 1.008 1.056.6.36 1.344.36t1.344-.36a3.3 3.3 0 0 0 1.056-1.056q.432-.696.672-1.656t.24-2.136q0-1.152-.24-2.088t-.672-1.608q-.432-.696-1.056-1.056a2.44 2.44 0 0 0-1.344-.384m14.163 7.848q0 .936.072 1.488.096.528.36.816t.768.384q.504.072 1.344.072v.96h-8.016v-.96q.72-.048 1.152-.144t.648-.384.264-.816q.072-.552.072-1.464v-2.928q0-1.488-.072-2.376t-.312-1.368-.696-.624q-.432-.168-1.152-.168v-.84l4.8-.888.384 2.76h.096q.648-1.272 1.704-2.016t2.232-.744q.912 0 1.488.456t.576 1.152q0 .768-.456 1.296-.432.528-1.2.528-.36 0-.648-.144a4 4 0 0 1-.528-.312 3 3 0 0 0-.456-.336.73.73 0 0 0-.456-.168q-.456 0-.864.6t-.672 1.608q-.192.72-.312 1.632-.12.888-.12 1.776zm28.827-9h2.904l-1.68 5.448q-.36 1.176-.528 1.944-.144.744-.144 1.08a.9.9 0 0 0 .288.696q.312.264.816.264.744 0 1.464-.6.744-.6 1.32-1.536.6-.96.96-2.16.36-1.224.36-2.448a6.65 6.65 0 0 0-.648-2.928 7 7 0 0 0-1.8-2.352q-1.128-.984-2.688-1.536t-3.408-.552q-2.208 0-4.104.792a9.9 9.9 0 0 0-3.264 2.16 9.9 9.9 0 0 0-2.184 3.24q-.792 1.848-.792 4.008 0 2.016.696 3.696a8.6 8.6 0 0 0 1.992 2.856q1.296 1.176 3.096 1.824t3.984.648q4.128 0 7.68-2.4l.768.984q-1.128.744-2.208 1.272-1.056.528-2.136.864-1.08.36-2.184.504-1.104.168-2.304.168-2.712 0-4.992-.768t-3.936-2.16a10.2 10.2 0 0 1-2.568-3.312q-.912-1.92-.912-4.2 0-2.4 1.008-4.488a11.8 11.8 0 0 1 2.784-3.672q1.776-1.56 4.176-2.448t5.16-.888q2.28 0 4.152.624t3.192 1.752a7.6 7.6 0 0 1 2.064 2.712q.744 1.584.744 3.504a9.5 9.5 0 0 1-.528 3.168q-.528 1.512-1.416 2.64a7.1 7.1 0 0 1-2.064 1.8 4.9 4.9 0 0 1-2.472.672q-1.296 0-1.992-.696-.696-.72-.816-2.064h-.096q-.792 1.32-1.896 2.04-1.08.72-2.256.72-.84 0-1.56-.336-.72-.36-1.272-.96a4.7 4.7 0 0 1-.864-1.44 4.8 4.8 0 0 1-.312-1.728q0-1.248.6-2.448t1.56-2.136a7.8 7.8 0 0 1 2.232-1.488 6 6 0 0 1 2.544-.576q1.176 0 1.824.528t1.008 1.824h.096zm-3.192 1.008q-.792 0-1.512.504t-1.296 1.344a7.5 7.5 0 0 0-.888 1.944 7.6 7.6 0 0 0-.336 2.256q0 2.496 1.44 2.496.72 0 1.464-.576a6.7 6.7 0 0 0 1.392-1.512 8 8 0 0 0 1.032-2.016 6.2 6.2 0 0 0 .408-2.16q0-1.104-.432-1.68-.432-.6-1.272-.6m24.493 9.48q-2.184 2.472-5.448 2.472-1.488 0-2.712-.456-1.2-.48-2.064-1.32a6.1 6.1 0 0 1-1.344-2.04q-.48-1.176-.48-2.616 0-1.488.504-2.712a6.2 6.2 0 0 1 1.416-2.136 6.7 6.7 0 0 1 2.184-1.416q1.272-.504 2.784-.504 2.544 0 3.96 1.368t1.416 3.84q0 .384-.12.48-.12.072-.672.072h-7.728q-.096.216-.096.792 0 2.352 1.008 3.72 1.032 1.368 2.784 1.368 1.008 0 1.992-.456a7.6 7.6 0 0 0 1.944-1.296zm-4.656-6.312q.96 0 1.224-.096.288-.12.288-.528 0-1.056-.6-1.728a1.94 1.94 0 0 0-1.512-.672q-1.032 0-1.848.864-.792.84-1.032 2.16zm7.831-1.08a7.5 7.5 0 0 0-.504-1.104q-.24-.432-.504-.648a1.13 1.13 0 0 0-.552-.312 3 3 0 0 0-.696-.072v-.96h7.176v.96q-.6 0-.96.048-.336.048-.528.144a.44.44 0 0 0-.216.264 1 1 0 0 0-.048.336q0 .312.12.72t.288.816l2.28 6.288h.096l2.568-6.264q.168-.408.264-.72.096-.336.096-.6 0-.528-.36-.768t-1.272-.264v-.96h5.304v.96q-.648 0-1.128.336-.456.336-.96 1.488l-4.488 10.176h-2.184zm24.997 7.392q-2.184 2.472-5.448 2.472-1.488 0-2.712-.456-1.2-.48-2.064-1.32a6.1 6.1 0 0 1-1.344-2.04q-.48-1.176-.48-2.616 0-1.488.504-2.712a6.2 6.2 0 0 1 1.416-2.136 6.7 6.7 0 0 1 2.184-1.416q1.272-.504 2.784-.504 2.544 0 3.96 1.368t1.416 3.84q0 .384-.12.48-.12.072-.672.072h-7.728q-.096.216-.096.792 0 2.352 1.008 3.72 1.032 1.368 2.784 1.368 1.008 0 1.992-.456a7.6 7.6 0 0 0 1.944-1.296zm-4.656-6.312q.96 0 1.224-.096.288-.12.288-.528 0-1.056-.6-1.728a1.94 1.94 0 0 0-1.512-.672q-1.032 0-1.848.864-.792.84-1.032 2.16zm11.927 4.824q0 .936.072 1.488.096.528.36.816t.768.384q.504.072 1.344.072v.96h-8.016v-.96q.72-.048 1.152-.144t.648-.384.264-.816q.072-.552.072-1.464v-2.928q0-1.488-.072-2.376t-.312-1.368-.696-.624q-.432-.168-1.152-.168v-.84l4.8-.888.384 2.76h.096q.648-1.272 1.704-2.016t2.232-.744q.912 0 1.488.456t.576 1.152q0 .768-.456 1.296-.432.528-1.2.528-.36 0-.648-.144a4 4 0 0 1-.528-.312 3 3 0 0 0-.456-.336.73.73 0 0 0-.456-.168q-.456 0-.864.6t-.672 1.608q-.192.72-.312 1.632-.12.888-.12 1.776zm12.649 7.488q-.264.528-.672.984a3.7 3.7 0 0 1-.888.768q-.48.336-1.008.528a3.1 3.1 0 0 1-1.056.192q-.792 0-1.272-.384t-.48-1.032q0-.6.408-.936.432-.336 1.368-.408 2.136-.168 2.76-1.344l.648-1.248-4.248-10.512a13 13 0 0 0-.504-1.104q-.192-.408-.432-.624a1.13 1.13 0 0 0-.552-.312 4.6 4.6 0 0 0-.768-.096v-.96h7.272v.96q-.936 0-1.32.192-.36.168-.36.648 0 .192.048.456.072.24.168.504l2.448 7.008h.096l2.064-4.68q.312-.744.528-1.224a7 7 0 0 0 .312-.84q.12-.36.168-.576t.048-.432q0-.624-.36-.84-.336-.216-1.392-.216v-.96h5.784v.96q-.48 0-.816.144-.336.12-.696.528-.336.408-.768 1.224a72 72 0 0 0-1.032 2.112zm16.054-16.728q1.44 0 2.712.504 1.296.48 2.256 1.344a6.1 6.1 0 0 1 1.536 2.064q.576 1.176.576 2.592 0 1.464-.576 2.688a6.3 6.3 0 0 1-1.536 2.112 7 7 0 0 1-2.256 1.392 7.3 7.3 0 0 1-2.712.504 7.6 7.6 0 0 1-2.688-.48 7.1 7.1 0 0 1-2.232-1.392 6.5 6.5 0 0 1-1.512-2.112 6.6 6.6 0 0 1-.552-2.712q0-1.416.552-2.616t1.512-2.064a7 7 0 0 1 2.232-1.344 7.6 7.6 0 0 1 2.688-.48m0 1.392a2.4 2.4 0 0 0-1.32.384q-.6.36-1.032 1.032-.408.672-.648 1.632a9.3 9.3 0 0 0-.216 2.088q0 1.2.216 2.16.24.96.648 1.632.432.672 1.008 1.056.6.36 1.344.36t1.344-.36a3.3 3.3 0 0 0 1.056-1.056q.432-.696.672-1.656t.24-2.136q0-1.152-.24-2.088t-.672-1.608q-.432-.696-1.056-1.056a2.44 2.44 0 0 0-1.344-.384m14.14 7.656q0 .984.048 1.56.072.552.264.864.216.288.624.384.432.096 1.152.144v.96h-7.56v-.96a7 7 0 0 0 1.104-.144q.432-.096.648-.384.24-.288.312-.816t.072-1.44v-3q0-1.416-.048-2.28-.048-.888-.12-1.2a1.7 1.7 0 0 0-.192-.504.7.7 0 0 0-.36-.312q-.24-.12-.6-.144a7 7 0 0 0-.912-.048v-.816l4.632-.912.312 2.112h.096a5.6 5.6 0 0 1 1.872-1.56 5.14 5.14 0 0 1 2.376-.552q1.536 0 2.472.432.96.408 1.704 1.392.408.552.72 1.44.312.864.312 2.4v3.384q0 .984.048 1.56.072.552.264.864.216.288.624.384a7 7 0 0 0 1.104.144v.96h-7.512v-.96q.72-.024 1.128-.12.432-.12.648-.408t.288-.816q.072-.552.072-1.44v-3.264q0-1.224-.144-2.064t-.48-1.344a1.7 1.7 0 0 0-.84-.744q-.528-.24-1.32-.24-.768 0-1.32.432t-.96 1.2q-.216.432-.384 1.128-.144.672-.144 1.416zm24.229 1.68q-2.184 2.472-5.448 2.472-1.488 0-2.712-.456-1.2-.48-2.064-1.32a6.1 6.1 0 0 1-1.344-2.04q-.48-1.176-.48-2.616 0-1.488.504-2.712a6.2 6.2 0 0 1 1.416-2.136 6.7 6.7 0 0 1 2.184-1.416q1.272-.504 2.784-.504 2.544 0 3.96 1.368t1.416 3.84q0 .384-.12.48-.12.072-.672.072h-7.728q-.096.216-.096.792 0 2.352 1.008 3.72 1.032 1.368 2.784 1.368 1.008 0 1.992-.456a7.6 7.6 0 0 0 1.944-1.296zm-4.656-6.312q.96 0 1.224-.096.288-.12.288-.528 0-1.056-.6-1.728a1.94 1.94 0 0 0-1.512-.672q-1.032 0-1.848.864-.792.84-1.032 2.16z"/><defs><linearGradient id="a" x1="1177.17" x2="834.297" y1="-52.571" y2="919.374" gradientUnits="userSpaceOnUse"><stop stop-color="#768ddb"/><stop offset=".644" stop-color="#4294bb"/><stop offset="1" stop-color="#7ad5d5"/></linearGradient></defs></svg>