<?xml version="1.0" encoding="UTF-8" standalone="no"?>
<!DOCTYPE svg PUBLIC "-//W3C//DTD SVG 1.1//EN" "http://www.w3.org/Graphics/SVG/1.1/DTD/svg11.dtd">
<svg width="100%" height="100%" viewBox="0 0 927 568" version="1.1" xmlns="http://www.w3.org/2000/svg" xmlns:xlink="http://www.w3.org/1999/xlink" xml:space="preserve" xmlns:serif="http://www.serif.com/" style="fill-rule:evenodd;clip-rule:evenodd;stroke-linejoin:round;stroke-miterlimit:2;">
    <g transform="matrix(1,0,0,1,-2346.36,-5465.14)">
        <g id="svg" transform="matrix(0.869029,0,0,0.525796,3609.81,5465.14)">
            <rect x="-1453.87" y="0" width="1065.93" height="1080" style="fill:none;"/>
            <clipPath id="_clip1">
                <rect x="-1453.87" y="0" width="1065.93" height="1080"/>
            </clipPath>
            <g clip-path="url(#_clip1)">
                <g transform="matrix(0.999803,0,0,1.63094,-0.287112,-371.458)">
                    <g id="left-legs" serif:id="left legs" transform="matrix(0.837632,-0.485683,0.473115,0.837632,-354.485,-299.142)">
                        <path d="M-1245.53,537.049C-1233.57,540.295 -1226.47,552.765 -1229.67,564.879C-1232.88,576.993 -1245.18,584.193 -1257.14,580.947C-1276.43,575.709 -1296,580.008 -1312.58,586.441C-1339.84,597.013 -1359.67,614.035 -1359.67,614.035C-1369.1,622.167 -1383.26,621.018 -1391.29,611.47C-1399.32,601.923 -1398.18,587.57 -1388.76,579.438C-1388.76,579.438 -1363.47,557.519 -1328.62,543.999C-1303.8,534.371 -1274.4,529.21 -1245.53,537.049ZM-1249.97,479.319C-1241.34,488.316 -1241.55,502.713 -1250.43,511.451C-1259.31,520.188 -1273.52,519.978 -1282.14,510.981C-1296.06,496.463 -1315.03,489.995 -1332.53,486.905C-1361.28,481.827 -1386.92,486.139 -1386.92,486.139C-1399.13,488.227 -1410.71,479.883 -1412.77,467.517C-1414.83,455.151 -1406.6,443.416 -1394.39,441.328C-1394.39,441.328 -1361.59,435.64 -1324.82,442.134C-1298.64,446.759 -1270.79,457.592 -1249.97,479.319Z" style="fill:rgb(235,235,235);"/>
                    </g>
                    <g id="right-legs" serif:id="right legs" transform="matrix(-0.837632,-0.485683,-0.473115,0.837632,-1487.32,-299.142)">
                        <path d="M-1257.14,580.947C-1245.18,584.193 -1232.88,576.993 -1229.67,564.879C-1226.47,552.765 -1233.57,540.295 -1245.53,537.049C-1274.4,529.21 -1303.8,534.371 -1328.62,543.999C-1363.47,557.519 -1388.76,579.438 -1388.76,579.438C-1398.18,587.57 -1399.32,601.923 -1391.29,611.47C-1383.26,621.018 -1369.1,622.167 -1359.67,614.035C-1359.67,614.035 -1339.84,597.013 -1312.58,586.441C-1296,580.008 -1276.43,575.709 -1257.14,580.947ZM-1282.14,510.981C-1273.52,519.978 -1259.31,520.188 -1250.43,511.451C-1241.55,502.713 -1241.34,488.316 -1249.97,479.319C-1270.79,457.592 -1298.64,446.759 -1324.82,442.134C-1361.59,435.64 -1394.39,441.328 -1394.39,441.328C-1406.6,443.416 -1414.83,455.151 -1412.77,467.517C-1410.71,479.883 -1399.13,488.227 -1386.92,486.139C-1386.92,486.139 -1361.28,481.827 -1332.53,486.905C-1315.03,489.995 -1296.06,496.463 -1282.14,510.981Z" style="fill:rgb(235,235,235);"/>
                    </g>
                    <g transform="matrix(1,0,0,1,0,-9.32899)">
                        <g transform="matrix(0.56736,0.995664,0.854102,-0.499623,-2828.61,-1292.03)">
                            <path d="M2000.1,452.132C1990.47,457.015 1986.09,469.979 1990.34,481.063C1994.58,492.148 2005.85,497.182 2015.48,492.299C2043.52,478.087 2082.73,485.124 2102.51,507.931C2109.94,516.505 2122.03,516.52 2129.48,507.965C2136.94,499.409 2136.95,485.502 2129.51,476.928C2100.05,442.959 2041.86,430.963 2000.1,452.132Z" style="fill:rgb(235,235,235);"/>
                        </g>
                        <g transform="matrix(1.10182,0,3.05816e-17,1.11636,-3017.66,-4396.33)">
                            <path d="M1462.23,4191.91L1473.8,4235.07C1475.99,4243.27 1481.36,4250.26 1488.71,4254.51C1496.06,4258.75 1504.79,4259.9 1512.99,4257.7L1568.43,4242.85C1576.63,4240.65 1583.62,4235.29 1587.87,4227.94C1592.11,4220.59 1593.26,4211.85 1591.06,4203.65C1587.12,4188.93 1582.59,4172.05 1579.54,4160.48C1578.77,4157.61 1579.66,4154.56 1581.85,4152.55C1584.04,4150.55 1587.16,4149.93 1589.95,4150.94C1627.05,4164.77 1657.14,4195.72 1668.16,4236.84C1686.25,4304.32 1646.14,4373.79 1578.65,4391.87C1511.17,4409.96 1441.7,4369.85 1423.62,4302.36C1412.6,4261.25 1423.19,4219.39 1448.37,4188.84C1450.29,4186.55 1453.32,4185.52 1456.23,4186.17C1459.15,4186.81 1461.46,4189.03 1462.23,4191.91Z" style="fill:rgb(235,235,235);"/>
                        </g>
                    </g>
                    <g transform="matrix(-1,0,0,1,-1841.81,-9.32899)">
                        <g transform="matrix(0.56736,0.995664,0.854102,-0.499623,-2828.61,-1292.03)">
                            <path d="M2000.1,452.132C1990.47,457.015 1986.09,469.979 1990.34,481.063C1994.58,492.148 2005.85,497.182 2015.48,492.299C2043.52,478.087 2082.73,485.124 2102.51,507.931C2109.94,516.505 2122.03,516.52 2129.48,507.965C2136.94,499.409 2136.95,485.502 2129.51,476.928C2100.05,442.959 2041.86,430.963 2000.1,452.132Z" style="fill:rgb(235,235,235);"/>
                        </g>
                        <g transform="matrix(1.10182,0,3.05816e-17,1.11636,-3017.66,-4396.33)">
                            <path d="M1462.23,4191.91L1473.8,4235.07C1475.99,4243.27 1481.36,4250.26 1488.71,4254.51C1496.06,4258.75 1504.79,4259.9 1512.99,4257.7L1568.43,4242.85C1576.63,4240.65 1583.62,4235.29 1587.87,4227.94C1592.11,4220.59 1593.26,4211.85 1591.06,4203.65C1587.12,4188.93 1582.59,4172.05 1579.54,4160.48C1578.77,4157.61 1579.66,4154.56 1581.85,4152.55C1584.04,4150.55 1587.16,4149.93 1589.95,4150.94C1627.05,4164.77 1657.14,4195.72 1668.16,4236.84C1686.25,4304.32 1646.14,4373.79 1578.65,4391.87C1511.17,4409.96 1441.7,4369.85 1423.62,4302.36C1412.6,4261.25 1423.19,4219.39 1448.37,4188.84C1450.29,4186.55 1453.32,4185.52 1456.23,4186.17C1459.15,4186.81 1461.46,4189.03 1462.23,4191.91Z" style="fill:rgb(235,235,235);"/>
                        </g>
                    </g>
                    <g id="body" transform="matrix(1.6463,0,0,1.62037,-3290.31,-93.4372)">
                        <ellipse cx="1439.23" cy="432" rx="209.829" ry="148.114" style="fill:rgb(235,235,235);"/>
                    </g>
                    <g id="glasses">
                        <g transform="matrix(0.915732,0,0,0.922903,-2512.47,-549.956)">
                            <path d="M1572.66,1001.04C1647.97,1001.04 1709.09,1062.23 1709.09,1137.55C1709.09,1212.86 1647.97,1274.05 1572.66,1274.05C1497.34,1274.05 1436.23,1212.86 1436.23,1137.55C1436.23,1062.23 1497.34,1001.04 1572.66,1001.04ZM1572.66,1028.13C1512.25,1028.13 1463.17,1077.14 1463.17,1137.55C1463.17,1197.95 1512.25,1246.96 1572.66,1246.96C1633.06,1246.96 1682.14,1197.95 1682.14,1137.55C1682.14,1077.14 1633.06,1028.13 1572.66,1028.13Z"/>
                        </g>
                        <g transform="matrix(1.0711,0,0,1.07949,-2704.48,-169.826)">
                            <path d="M1631.81,621.492C1625.65,623.098 1619.36,619.379 1617.76,613.193C1616.17,607.007 1619.87,600.681 1626.02,599.076C1626.02,599.076 1652.13,592.396 1665.18,592.396C1678.23,592.396 1704.34,599.076 1704.34,599.076C1710.49,600.681 1714.19,607.007 1712.6,613.193C1711,619.379 1704.71,623.098 1698.55,621.492C1698.55,621.492 1676.31,615.555 1665.18,615.555C1654.05,615.555 1631.81,621.492 1631.81,621.492Z"/>
                        </g>
                        <g transform="matrix(0.915732,0,0,0.922903,-2209.59,-549.956)">
                            <path d="M1572.66,1001.04C1647.97,1001.04 1709.09,1062.23 1709.09,1137.55C1709.09,1212.86 1647.97,1274.05 1572.66,1274.05C1497.34,1274.05 1436.23,1212.86 1436.23,1137.55C1436.23,1062.23 1497.34,1001.04 1572.66,1001.04ZM1572.66,1028.13C1512.25,1028.13 1463.17,1077.14 1463.17,1137.55C1463.17,1197.95 1512.25,1246.96 1572.66,1246.96C1633.06,1246.96 1682.14,1197.95 1682.14,1137.55C1682.14,1077.14 1633.06,1028.13 1572.66,1028.13Z"/>
                        </g>
                    </g>
                </g>
            </g>
        </g>
    </g>
</svg>
